<svg width="16" height="22" viewBox="0 0 16 22" fill="none" xmlns="http://www.w3.org/2000/svg">
<g clip-path="url(#clip0)">
<path fill-rule="evenodd" clip-rule="evenodd" d="M8 20C12.4183 20 16 16.4183 16 12C16 7.58172 12.4183 4 8 4C3.58172 4 0 7.58172 0 12C0 16.4183 3.58172 20 8 20Z" stroke="#1B1A19"/>
<path d="M10.6079 13.155L11.1779 14.025C10.5979 14.775 9.73289 15.15 8.58289 15.15C7.50289 15.15 6.62789 14.83 5.95789 14.19C5.29789 13.55 4.96789 12.695 4.96789 11.625C4.96789 10.635 5.29289 9.8 5.94289 9.12C6.59289 8.44 7.40789 8.1 8.38789 8.1C9.56789 8.1 10.4529 8.395 11.0429 8.985L10.4879 9.93C9.96789 9.46 9.32289 9.225 8.55289 9.225C7.92289 9.225 7.37789 9.455 6.91789 9.915C6.46789 10.365 6.24289 10.935 6.24289 11.625C6.24289 12.355 6.47289 12.935 6.93289 13.365C7.40289 13.805 7.98289 14.025 8.67289 14.025C9.45289 14.025 10.0979 13.735 10.6079 13.155Z" fill="#1B1A19"/>
</g>
<defs>
<clipPath id="clip0">
</clipPath>
</defs>
</svg>
