<svg width="114" height="101" viewBox="0 0 114 101" fill="none" xmlns="http://www.w3.org/2000/svg">
<g filter="url(#filter0_d)">
<g clip-path="url(#clip0)">
<path d="M57.1321 44.2C58.3788 44.268 59.3251 44.608 59.9711 45.22C60.6285 45.8207 60.9571 46.6083 60.9571 47.583C60.9571 48.263 60.7928 48.8693 60.4641 49.402C60.1355 49.9233 59.6481 50.337 59.0021 50.643C58.3561 50.949 57.5685 51.102 56.6391 51.102C55.7778 51.102 54.9618 50.966 54.1911 50.694C53.4318 50.4107 52.8198 50.0367 52.3551 49.572L52.9501 48.603C53.3468 49.011 53.8738 49.3453 54.5311 49.606C55.1885 49.8553 55.8911 49.98 56.6391 49.98C57.6138 49.98 58.3675 49.7703 58.9001 49.351C59.4328 48.9203 59.6991 48.331 59.6991 47.583C59.6991 46.8463 59.4328 46.2683 58.9001 45.849C58.3675 45.4297 57.5628 45.22 56.4861 45.22H55.6361V44.319L58.9341 40.188H52.8481V39.1H60.4981V39.967L57.1321 44.2Z" fill="#83BE42"/>
<path fill-rule="evenodd" clip-rule="evenodd" d="M42.3209 62.3111H71.6538V23.7852H42.3209V62.3111ZM75.4408 62.3111V22.9729C75.4408 21.334 74.1067 20 72.466 20H41.5104C39.8716 20 38.5357 21.334 38.5357 22.9729V62.3111H23.6227C22.7262 62.3111 22 63.0373 22 63.9321C22 64.8286 22.7262 65.5548 23.6227 65.5548H90.3555C91.2503 65.5548 91.9765 64.8286 91.9765 63.9321C91.9765 63.0373 91.2503 62.3111 90.3555 62.3111H75.4408ZM45.2508 73.7563C44.3542 73.7563 43.628 74.4807 43.628 75.3773C43.628 76.272 44.3542 77 45.2508 77H68.9516C69.8482 77 70.5743 76.272 70.5743 75.3773C70.5743 74.4807 69.8482 73.7563 68.9516 73.7563H45.2508ZM33.1744 69.6556C33.1744 68.759 33.9006 68.0328 34.7954 68.0328H79.4967C80.3914 68.0328 81.1176 68.759 81.1176 69.6556C81.1176 70.5521 80.3914 71.2783 79.4967 71.2783H34.7954C33.9006 71.2783 33.1744 70.5521 33.1744 69.6556Z" fill="#83BE42"/>
</g>
</g>
<defs>
<filter id="filter0_d" x="0" y="0" width="114" height="101" filterUnits="userSpaceOnUse" color-interpolation-filters="sRGB">
<feFlood flood-opacity="0" result="BackgroundImageFix"/>
<feColorMatrix in="SourceAlpha" type="matrix" values="0 0 0 0 0 0 0 0 0 0 0 0 0 0 0 0 0 0 127 0"/>
<feOffset dy="2"/>
<feGaussianBlur stdDeviation="11"/>
<feColorMatrix type="matrix" values="0 0 0 0 0.513726 0 0 0 0 0.745098 0 0 0 0 0.258824 0 0 0 0.8 0"/>
<feBlend mode="normal" in2="BackgroundImageFix" result="effect1_dropShadow"/>
<feBlend mode="normal" in="SourceGraphic" in2="effect1_dropShadow" result="shape"/>
</filter>
<clipPath id="clip0">
</clipPath>
</defs>
</svg>
