<svg width="55" height="41" viewBox="0 0 55 41" fill="none" xmlns="http://www.w3.org/2000/svg">
<path fill-rule="evenodd" clip-rule="evenodd" d="M27.454 0.890015C37.725 0.890015 47.372 4.87901 54.615 12.123C55.006 12.513 55.006 13.146 54.615 13.536C54.42 13.731 54.164 13.829 53.908 13.829C53.652 13.829 53.396 13.731 53.201 13.536C46.335 6.67001 37.191 2.88901 27.454 2.88901C17.717 2.88901 8.57301 6.67001 1.70701 13.537C1.31601 13.928 0.684006 13.928 0.293006 13.537C-0.0979941 13.146 -0.0979941 12.514 0.293006 12.123C7.53701 4.87801 17.183 0.890015 27.454 0.890015ZM6.17101 19.414C5.78001 19.023 5.78001 18.391 6.17101 18C17.907 6.26402 37.002 6.26602 48.736 18C49.127 18.391 49.127 19.023 48.736 19.414C48.345 19.805 47.713 19.805 47.322 19.414C36.366 8.45801 18.54 8.45801 7.58501 19.414C7.39001 19.609 7.13401 19.707 6.87801 19.707C6.62201 19.707 6.36601 19.609 6.17101 19.414ZM27.454 17.508C21.629 17.508 16.159 19.771 12.05 23.879C11.659 24.27 11.659 24.902 12.05 25.293C12.441 25.684 13.073 25.684 13.464 25.293C17.195 21.563 22.163 19.508 27.454 19.508C32.745 19.508 37.713 21.563 41.444 25.293C41.639 25.488 41.895 25.586 42.151 25.586C42.407 25.586 42.663 25.488 42.858 25.293C43.249 24.902 43.249 24.27 42.858 23.879C38.75 19.771 33.279 17.508 27.454 17.508ZM20.903 33.468C20.903 29.855 23.842 26.916 27.454 26.916C31.067 26.916 34.006 29.855 34.006 33.468C34.006 37.081 31.067 40.02 27.454 40.02C23.842 40.02 20.903 37.081 20.903 33.468Z" fill="#1B1A19"/>
</svg>
